<svg xmlns="http://www.w3.org/2000/svg" xmlns:svg="http://www.w3.org/2000/svg" id="svg2" width="89" height="90" x="0" y="0" enable-background="new -11.807 -2.557 100 100" overflow="visible" version="1.1" viewBox="-11.807 -2.557 89 90" xml:space="preserve"><metadata id="metadata16"/><path id="path4" d="m 33.270729,-0.699153 c -23.802,0 -43.097,19.295 -43.097,43.097 0,23.802 19.295,43.097003 43.097,43.097003 23.802,0 43.097,-19.295003 43.097,-43.097003 0,-23.802 -19.296,-43.097 -43.097,-43.097 z m 39.299,41.443 -20.823,0 c -1.341,-8.75 -8.896,-15.48 -18.016,-15.48 -0.123,0 -0.242,0.016 -0.364,0.019 l 0,-21.656 c 21.032,0.05 38.185,16.478 39.203,37.117 z m -49.964,30.000003 2.017,-11.443003 c 2.685,1.555 5.789,2.46 9.108,2.46 3.562,0 6.876,-1.041 9.688,-2.812 l 2.081,11.795003 -22.894,0 z m 24.076,-27.232003 c 0,7.141 -5.811,12.95 -12.95,12.95 -7.139,0 -12.95,-5.81 -12.95,-12.95 0,-0.601 0.056,-1.188 0.135,-1.768 l 11.451,0 1,0 13.18,0 c 0.078,0.579 0.134,1.167 0.134,1.768 z m -25.596,-2.768 c 1.178,-5.382 5.705,-9.524 11.281,-10.111 l 0,10.111 -11.281,0 z m 12.281,0 0,-10.166 c 0.122,-0.004 0.241,-0.019 0.364,-0.019 6.189,0 11.373,4.369 12.646,10.185 l -13.01,0 z m -1,-37.097 0,21.687 c -8.5,0.633 -15.377,7.103 -16.65,15.411 l -21.7460002,0 c 1.004,-20.375 17.7350002,-36.634 38.3960002,-37.098 z m 0.904,78.099003 c -21.732,0 -39.3500002,-17.487003 -39.3500002,-39.061003 0,-0.315 0.017,-0.627 0.024,-0.941 l 21.6290002,0 c -0.057,0.582 -0.09,1.171 -0.09,1.768 0,4.895 1.947,9.336 5.096,12.617 l -3.742,21.214003 4.465,0.785 0.949,-5.384 23.115,0 0.485,0 0.947,5.371 4.461,-0.787 -3.841,-21.789003 c 2.828,-3.216 4.56,-7.419 4.56,-12.027 0,-0.597 -0.033,-1.186 -0.09,-1.768 l 20.705,0 c 0.008,0.314 0.024,0.626 0.024,0.941 0.001,21.574 -17.616,39.061003 -39.347,39.061003 z"/><rect id="rect6" width="16" height="1" x="25.367" y="50.744" fill="red"/><rect id="rect8" width="9" height="1" x="28.367" y="46.744" fill="red"/><rect id="rect10" width="5" height="1" x="30.367" y="42.744" fill="red"/></svg>